<?xml version="1.0" encoding="utf-8"?>
<!-- Uploaded to: SVG Repo, www.svgrepo.com, Generator: SVG Repo Mixer Tools -->
<svg width="800px" height="800px" viewBox="0 -116.5 1257 1257" class="icon"  version="1.1" xmlns="http://www.w3.org/2000/svg"><path d="M609.608 877.678c3.53 14.504 232.664 44.493 378.372-113.17 121.117-131.019 95.187-306.816 89.885-338.283-19.879-117.464-87.29-212.885-104.658-206.709-26.324 9.373 97.265 239.872-5.289 413.049-33.779 57.040-84.226 94.596-130.933 129.371-124.722 92.849-229.848 105.63-227.375 115.742z" fill="#E4EEFB" /><path d="M689.355 907.458c-29.68-0.060-58.83-2.083-87.394-5.95-6.87-1.768-15.339-11.705-15.339-23.618 0-13.588 11.015-24.603 24.602-24.603 0.526 0 1.048 0.017 1.566 0.049 106.778 13.527 255.487 6.381 356.971-105.326 110.353-121.475 89.196-285.855 83.833-317.592-6.348-37.53-21.195-125.472-96.724-192.514-60.645-53.88-129.593-67.657-165.303-71.051-56.475-5.4-88.568 8.808-137.085 30.298-34.246 15.167-76.882 34.038-139.002 50.435-92.752 24.405-153.765 23.644-198.32 23.078s-65.036-0.886-88.163 21.391c-32.228 31.098-47.335 86.379-42.365 155.549 4.589 63.832 26.361 135.216 58.234 190.963 58.64 102.531 153.765 154.54 223.267 180.113 9.538 3.532 16.211 12.55 16.211 23.127 0 13.588-11.015 24.603-24.602 24.603-3.088 0-6.043-0.57-8.768-1.608-47.006-17.301-90.010-40.020-127.665-67.441-50.435-36.731-91.189-81.938-121.155-134.354-35.882-62.785-59.427-140-64.594-211.925-2.817-39.266 0-75.198 8.29-106.774 9.472-35.919 25.967-65.442 48.997-87.671 37.666-36.314 75.308-35.834 123.012-35.231 41.725 0.529 98.889 1.23 185.169-21.453 58.282-15.339 97.178-32.574 131.623-47.778 51.542-22.868 92.296-40.927 161.6-34.296 41.677 3.986 122.213 20.088 193.3 83.243 88.482 78.605 105.975 182.131 112.555 221.101 3.284 19.4 10.075 71.408 2.362 135.313-10.641 88.261-43.718 163.47-98.288 223.549-53.768 59.182-123.922 98.078-208.542 115.718-31.845 6.777-68.435 10.658-105.929 10.658-0.829 0-1.657-0.002-2.485-0.007z" fill="#000000" /><path d="M538.814 889.425c-1.98-0.004-3.903-0.239-5.745-0.681l-4.169-0.968c-11.014-2.606-19.083-12.353-19.083-23.988 0-13.597 11.021-24.618 24.618-24.618 1.962 0 3.873 0.23 5.702 0.664l4.138 0.964c11.013 2.601 19.082 12.345 19.082 23.975 0 13.584-11.009 24.597-24.593 24.603z" fill="#000000" /><path d="M941.555 488.504c6.729 96.847-78.457 180.716-165.501 196.82-128.276 23.717-264.181-99.086-252.715-206.020 11.821-110.218 179.032-192.501 297.626-145.56 56.795 22.487 115.385 79.737 120.588 154.761z" fill="#FADC4A" /><path d="M619.597 424.957c-26.853 37.408-27.431 68.763-36.67 68.284-8.808-0.468-20.396-29.584-13.532-54.962 13.372-49.205 91.46-66.18 95.322-59.477 2.263 3.874-21.416 13.237-45.12 46.154z" fill="#FFFFFF" /><path d="M898.477 563.504c-41.136 90.856-173.521 106.246-178.515 95.949-4.392-9.078 91.028-34.959 133.222-125.226 33.336-71.347 11.993-137.318 21.318-138.548 11.133-1.501 58.726 91.078 23.975 167.826z" fill="#E8CC45" /></svg>