<?xml version="1.0" encoding="iso-8859-1"?>
<!-- Uploaded to: SVG Repo, www.svgrepo.com, Generator: SVG Repo Mixer Tools -->
<svg height="800px" width="800px" version="1.1" id="Layer_1" xmlns="http://www.w3.org/2000/svg" xmlns:xlink="http://www.w3.org/1999/xlink" 
	 viewBox="0 0 512 512" xml:space="preserve">
<path style="fill:#FF5419;" d="M230.503,288.392c-1.764,0-3.531-0.674-4.875-2.02c-2.694-2.693-2.694-7.059,0-9.75l43.841-43.841
	c2.691-2.694,7.061-2.694,9.75,0c2.694,2.693,2.694,7.059,0,9.75l-43.841,43.841C234.034,287.718,232.267,288.392,230.503,288.392z"
	/>
<path style="fill:#C92F00;" d="M225.944,286.63c1.302,1.157,2.924,1.762,4.56,1.762c1.764,0,3.531-0.674,4.875-2.02l43.841-43.841
	c2.594-2.593,2.663-6.727,0.259-9.435L225.944,286.63z"/>
<path style="fill:#386895;" d="M259.489,238.744l13.767,13.767c3.903,3.901,10.228,3.901,14.131,0l117.391-117.389
	c3.903-3.901,3.903-10.228,0-14.131l-13.767-13.767c-3.903-3.901-10.228-3.901-14.131,0L259.489,224.613
	C255.586,228.516,255.586,234.843,259.489,238.744z"/>
<path style="fill:#273B7A;" d="M398.181,114.395l-131.52,131.52l6.596,6.596c3.901,3.901,10.228,3.901,14.131,0l117.391-117.389
	c3.901-3.901,3.901-10.228,0-14.131L398.181,114.395z"/>
<path style="fill:#FFFFFF;" d="M235.817,276.183L235.817,276.183c-24.212-24.212-63.469-24.212-87.681,0l-43.839,43.839
	l87.681,87.681l43.841-43.841C260.029,339.651,260.029,300.396,235.817,276.183z M142.222,331.421c-1.103,0-2.205-0.421-3.048-1.262
	c-1.684-1.684-1.684-4.411,0-6.094l42.667-42.667c1.684-1.684,4.411-1.684,6.094,0c1.683,1.684,1.684,4.411,0,6.094l-42.667,42.667
	C144.427,331,143.326,331.421,142.222,331.421z M163.556,352.754c-1.103,0-2.205-0.421-3.048-1.262
	c-1.684-1.684-1.684-4.411,0-6.094l42.667-42.667c1.684-1.684,4.411-1.684,6.094,0s1.684,4.411,0,6.094l-42.667,42.667
	C165.76,352.334,164.659,352.754,163.556,352.754z M230.603,330.159l-42.667,42.667c-0.841,0.841-1.945,1.262-3.048,1.262
	s-2.205-0.421-3.048-1.262c-1.684-1.684-1.684-4.411,0-6.094l42.667-42.667c1.684-1.684,4.411-1.684,6.094,0
	S232.286,328.475,230.603,330.159z"/>
<path style="fill:#F5F5F5;" d="M209.529,303.047c1.4,1.693,1.326,4.193-0.259,5.779l-42.667,42.667
	c-0.841,0.841-1.945,1.262-3.048,1.262c-0.974,0-1.936-0.348-2.731-1.003l-12.4,12.4l43.553,43.553l43.841-43.841
	c24.116-24.116,24.204-63.15,0.281-87.385L209.529,303.047z M230.603,330.159l-42.667,42.667c-0.841,0.841-1.945,1.262-3.048,1.262
	s-2.205-0.421-3.048-1.262c-1.684-1.684-1.684-4.411,0-6.094l42.667-42.667c1.684-1.684,4.411-1.684,6.094,0
	S232.286,328.475,230.603,330.159z"/>
</svg>